<svg class="b-icon" xmlns="http://www.w3.org/2000/svg" viewBox="0 0 50 50" enable-background="new 0 0 50 50">
    <path d="M 25 1 C 11.757011 1 1 11.757011 1 25 C 1 38.242989 11.757011 49 25 49 C 38.242989 49 49 38.242989 49 25 C 49 11.757011 38.242989 1 25 1 z M 25 3 C 37.162109 3 47 12.837891 47 25 C 47 37.162109 37.162109 47 25 47 C 12.837891 47 3 37.162109 3 25 C 3 12.837891 12.837891 3 25 3 z M 24.09375 10 L 24.09375 12.8125 C 18.49375 13.1125 17.5 17.2875 17.5 19.1875 C 17.5 28.5875 31.1875 23.5875 31.1875 30.6875 C 31.1875 31.5875 30.99375 35.59375 25.09375 35.59375 C 24.89375 35.59375 18.8 35.6125 19 29.3125 L 16.90625 29.3125 C 17.10625 36.0125 21.39375 36.8875 24.09375 37.1875 L 24.09375 40 L 26.09375 40 L 26.09375 37.1875 C 32.79375 36.6875 33.1875 31.6875 33.1875 30.6875 C 33.1875 21.6875 19.5 26.30625 19.5 19.40625 C 19.5 17.10625 20.39375 14.40625 25.09375 14.40625 C 29.89375 14.40625 30.49375 18.20625 30.59375 19.90625 L 32.6875 19.90625 C 32.8875 17.10625 30.89375 13.0125 26.09375 12.8125 L 26.09375 10 L 24.09375 10 z"></path>
</svg>
