<svg xmlns="http://www.w3.org/2000/svg" version="1.1" width="50" height="50">
    <g>
        <path d="M39.3,39.4c-0.6,0.2-1.2,0.2-1.8,0.2H14.9c-1.1,0-2.1-0.2-3.1-0.5l-0.1,0c-3.3-1.2-5.7-4.3-6-7.8h0   c-0.8,0-1.5-0.1-2.2-0.4c0.2,4.6,3.2,8.6,7.5,10.2l0.1,0c1.2,0.4,2.5,0.7,3.8,0.7l0.2,0h22.3c1.2,0,2.3-0.2,3.4-0.6   C40.2,40.7,39.7,40.1,39.3,39.4z M10.5,22.3c1.2-0.7,2.6-1.1,4.1-1.1l1.6-0.1l0.6-1.5c1.5-3.6,4.7-6,8.5-6.5c0,0,0-0.1,0-0.1   c0-0.7,0.1-1.4,0.4-2.1c-4.8,0.4-9,3.4-10.9,7.9L14.8,19l-0.3,0c-2,0.1-3.9,0.7-5.6,1.7C9.5,21.1,10,21.6,10.5,22.3z M39.8,23.4   l-0.3-0.1l0-0.3c-0.1-3-1.3-5.7-3.1-7.8c-0.3,0.7-0.7,1.3-1.3,1.8c1.3,1.7,2.1,3.8,2.2,6.1l0.1,1.9l1.8,0.5   c2.6,0.7,4.5,2.8,5.1,5.3c0.8,0,1.6,0.2,2.3,0.5C46.2,27.6,43.6,24.4,39.8,23.4z"></path>
        <path opacity="0.5" d="M5.7,20.8c-2.6,0-4.7,2.1-4.7,4.7c0,2.6,2.1,4.7,4.7,4.7c2.6,0,4.7-2.1,4.7-4.7   C10.4,22.9,8.3,20.8,5.7,20.8z M5.7,28.1c-1.4,0-2.6-1.1-2.6-2.6S4.3,23,5.7,23s2.6,1.1,2.6,2.6S7.1,28.1,5.7,28.1z"></path>
        <path opacity="0.5" d="M31.1,8.2c-2.6,0-4.7,2.1-4.7,4.7s2.1,4.7,4.7,4.7c2.6,0,4.7-2.1,4.7-4.7S33.7,8.2,31.1,8.2z    M31.1,15.5c-1.4,0-2.6-1.1-2.6-2.6s1.1-2.6,2.6-2.6c1.4,0,2.6,1.1,2.6,2.6S32.6,15.5,31.1,15.5z"></path>
        <path opacity="0.5" d="M44.3,31.8c-2.6,0-4.7,2.1-4.7,4.7c0,2.6,2.1,4.7,4.7,4.7c2.6,0,4.7-2.1,4.7-4.7   C49,34,46.9,31.8,44.3,31.8z M44.3,39.1c-1.4,0-2.6-1.1-2.6-2.6c0-1.4,1.1-2.6,2.6-2.6c1.4,0,2.6,1.1,2.6,2.6   C46.9,38,45.7,39.1,44.3,39.1z"></path>
    </g>
</svg>
