<svg xmlns="http://www.w3.org/2000/svg" viewBox="0 0 32.01 24.1">
  <path d="M23.39,12.29A4.25,4.25,0,0,0,18,15.2a.5.5,0,0,0,.35.62l.13,0a.5.5,0,0,0,.48-.37,3.26,3.26,0,0,1,4.14-2.22.5.5,0,1,0,.31-1Z" transform="translate(0 0)"/>
  <path d="M28.82,14.09a6.56,6.56,0,0,0-6.28-5A5.79,5.79,0,0,0,21,9.36V7.13h.55a.5.5,0,0,0,.34-.87L21,5.43V1.62a.52.52,0,0,0-.52-.52h-2a.52.52,0,0,0-.52.52v1L15.34.13a.5.5,0,0,0-.68,0L8.1,6.27a.5.5,0,0,0,.34.87H9v1a3.92,3.92,0,0,0-4,4.07A6,6,0,0,0,6,24.1H26.9A5.19,5.19,0,0,0,32,19.44,5,5,0,0,0,28.82,14.09ZM19,2.14H20V4.46L19,3.58ZM7.1,9.74A3,3,0,0,1,9,9.09V12.9a6,6,0,0,0-3-.83A3,3,0,0,1,7.1,9.74ZM31,19.34a4.19,4.19,0,0,1-4.1,3.76H6a5,5,0,1,1,0-10,5.09,5.09,0,0,1,5,4.19,4.17,4.17,0,0,0-1.75.85.53.53,0,1,0,.68.81,3.34,3.34,0,0,1,4.2,0,.53.53,0,0,0,.68-.81,4.32,4.32,0,0,0-2.81-1h0a5.88,5.88,0,0,0-2-3.5v-7a.5.5,0,0,0-.33-.47l5.32-5,5.34,5a.5.5,0,0,0-.32.47v3.1a4.39,4.39,0,0,0-.8.47.5.5,0,1,0,.61.79,5.21,5.21,0,0,1,2.72-.87,5.63,5.63,0,0,1,5.51,5.73,6.1,6.1,0,0,1,0,.7.5.5,0,0,0,.44.55h.06a.5.5,0,0,0,.5-.44,6.82,6.82,0,0,0,0-.82c0-.19,0-.38,0-.57A4.12,4.12,0,0,1,31,19.34Z" transform="translate(0 0)"/>
  <path d="M15,7.14a2,2,0,0,0-2,2s0,0,0,0v3.93H17V9.19a.47.47,0,0,0,0-.06A2,2,0,0,0,15,7.14Zm0,1a1,1,0,0,1,1,1v0H14v0A1,1,0,0,1,15,8.14Zm1,4H14v-2h2Z" transform="translate(0 0)"/>
</svg>
